<svg width="200" height="200" viewBox="0 0 200 200" xmlns="http://www.w3.org/2000/svg">
  <!-- Fondo -->
  <rect width="200" height="200" fill="#f5f5f5" rx="10" ry="10"/>
  
  <!-- Silueta del pie -->
  <path d="M60,50 C90,45 120,45 140,60 C160,80 160,110 150,140 C140,160 120,170 90,170 C70,170 50,160 40,140 C30,120 30,100 40,80 C45,65 50,55 60,50 Z" fill="#f3d8b4" stroke="#d6b898" stroke-width="1"/>
  
  <!-- Líneas de reflexología -->
  <path d="M60,60 C80,70 110,70 130,60" stroke="#666" stroke-width="1" fill="none"/>
  <path d="M50,80 C80,90 120,90 140,80" stroke="#666" stroke-width="1" fill="none"/>
  <path d="M45,100 C80,110 120,110 145,100" stroke="#666" stroke-width="1" fill="none"/>
  <path d="M45,120 C80,130 120,130 145,120" stroke="#666" stroke-width="1" fill="none"/>
  <path d="M50,140 C80,150 110,150 140,140" stroke="#666" stroke-width="1" fill="none"/>
  
  <!-- Puntos de presión -->
  <circle cx="70" cy="75" r="3" fill="#e74c3c"/>
  <circle cx="90" cy="65" r="3" fill="#3498db"/>
  <circle cx="110" cy="65" r="3" fill="#2ecc71"/>
  
  <circle cx="65" cy="95" r="3" fill="#f39c12"/>
  <circle cx="85" cy="100" r="3" fill="#9b59b6"/>
  <circle cx="105" cy="100" r="3" fill="#1abc9c"/>
  <circle cx="125" cy="95" r="3" fill="#34495e"/>
  
  <circle cx="75" cy="125" r="3" fill="#e67e22"/>
  <circle cx="95" cy="130" r="3" fill="#8e44ad"/>
  <circle cx="115" cy="125" r="3" fill="#16a085"/>
  
  <!-- Manos masajeando el pie -->
  <ellipse cx="30" cy="100" rx="15" ry="10" fill="#f9c9b6" transform="rotate(-15)"/>
  <ellipse cx="160" cy="110" rx="15" ry="10" fill="#f9c9b6" transform="rotate(15)"/>
</svg>
