<svg width="200" height="200" viewBox="0 0 200 200" xmlns="http://www.w3.org/2000/svg">
  <!-- Fondo -->
  <rect width="200" height="200" fill="#f5f5f5" rx="10" ry="10"/>
  
  <!-- Mesa de masaje -->
  <rect x="30" y="110" width="140" height="30" fill="#b4ccde" rx="5" ry="5"/>
  <rect x="40" y="140" width="10" height="40" fill="#96b3ca"/>
  <rect x="150" y="140" width="10" height="40" fill="#96b3ca"/>
  
  <!-- Persona recibiendo masaje deportivo -->
  <ellipse cx="100" cy="105" rx="50" ry="20" fill="#f3d8b4"/>
  <ellipse cx="60" cy="90" rx="15" ry="15" fill="#f3d8b4"/>
  
  <!-- Manos del masajista -->
  <ellipse cx="85" cy="95" rx="10" ry="8" fill="#f9c9b6" transform="rotate(-15)"/>
  <ellipse cx="120" cy="100" rx="10" ry="8" fill="#f9c9b6" transform="rotate(15)"/>
  
  <!-- Elementos deportivos -->
  <circle cx="45" cy="50" r="15" fill="#fff" stroke="#333" stroke-width="1"/>
  <circle cx="45" cy="50" r="14" fill="none" stroke="#333" stroke-width="0.5" stroke-dasharray="1 1"/>
  <path d="M40,45 L40,55 M35,50 L55,50" stroke="#333" stroke-width="1"/>
  
  <!-- Pesas y banda elástica -->
  <rect x="150" y="40" width="25" height="10" rx="2" ry="2" fill="#666"/>
  <circle cx="150" cy="45" r="12" fill="#888"/>
  <circle cx="175" cy="45" r="12" fill="#888"/>
  
  <path d="M30,70 C50,60 70,80 90,70" stroke="#f44336" fill="none" stroke-width="3"/>
</svg>
