<svg width="200" height="200" viewBox="0 0 200 200" xmlns="http://www.w3.org/2000/svg">
  <!-- Fondo -->
  <rect width="200" height="200" fill="#f5f5f5" rx="10" ry="10"/>
  
  <!-- Silueta cuerpo -->
  <path d="M100,30 C80,30 70,50 70,70 C70,85 75,95 75,110 C75,140 70,160 70,170 C70,180 85,185 100,185 C115,185 130,180 130,170 C130,160 125,140 125,110 C125,95 130,85 130,70 C130,50 120,30 100,30 Z" fill="#e6e6e6" stroke="#ccc" stroke-width="1"/>
  
  <!-- Flechas de flujo linfático -->
  <path d="M85,85 C75,90 65,110 75,130" stroke="#85c4d9" stroke-width="4" fill="none" stroke-linecap="round"/>
  <path d="M115,85 C125,90 135,110 125,130" stroke="#85c4d9" stroke-width="4" fill="none" stroke-linecap="round"/>
  <path d="M95,140 C85,125 85,100 95,90" stroke="#85c4d9" stroke-width="4" fill="none" stroke-linecap="round"/>
  <path d="M105,140 C115,125 115,100 105,90" stroke="#85c4d9" stroke-width="4" fill="none" stroke-linecap="round"/>
  
  <!-- Manos del terapeuta -->
  <ellipse cx="75" cy="100" rx="10" ry="7" fill="#f9c9b6" transform="rotate(-15, 75, 100)"/>
  <ellipse cx="125" cy="100" rx="10" ry="7" fill="#f9c9b6" transform="rotate(15, 125, 100)"/>
  
  <!-- Símbolos del sistema linfático -->
  <circle cx="90" cy="60" r="3" fill="#85c4d9"/>
  <circle cx="110" cy="60" r="3" fill="#85c4d9"/>
  <circle cx="83" cy="80" r="2.5" fill="#85c4d9"/>
  <circle cx="117" cy="80" r="2.5" fill="#85c4d9"/>
  <circle cx="85" cy="105" r="3" fill="#85c4d9"/>
  <circle cx="115" cy="105" r="3" fill="#85c4d9"/>
  <circle cx="90" cy="130" r="4" fill="#85c4d9"/>
  <circle cx="110" cy="130" r="4" fill="#85c4d9"/>
  <circle cx="95" cy="150" r="5" fill="#85c4d9"/>
  <circle cx="105" cy="150" r="5" fill="#85c4d9"/>
  
  <!-- Círculos decorativos representando flujo linfático -->
  <circle cx="40" cy="40" r="8" fill="#85c4d9" opacity="0.3"/>
  <circle cx="30" cy="65" r="6" fill="#85c4d9" opacity="0.3"/>
  <circle cx="25" cy="90" r="10" fill="#85c4d9" opacity="0.3"/>
  <circle cx="30" cy="120" r="7" fill="#85c4d9" opacity="0.3"/>
  <circle cx="40" cy="150" r="9" fill="#85c4d9" opacity="0.3"/>
  
  <circle cx="160" cy="40" r="8" fill="#85c4d9" opacity="0.3"/>
  <circle cx="170" cy="65" r="6" fill="#85c4d9" opacity="0.3"/>
  <circle cx="175" cy="90" r="10" fill="#85c4d9" opacity="0.3"/>
  <circle cx="170" cy="120" r="7" fill="#85c4d9" opacity="0.3"/>
  <circle cx="160" cy="150" r="9" fill="#85c4d9" opacity="0.3"/>
  
  <!-- Texto descriptivo -->
  <text x="100" y="185" font-family="Arial" font-size="9" text-anchor="middle" fill="#333">Masaje Linfático</text>
</svg>
