<svg width="200" height="200" viewBox="0 0 200 200" xmlns="http://www.w3.org/2000/svg">
  <!-- Fondo -->
  <rect width="200" height="200" fill="#f5f5f5" rx="10" ry="10"/>
  
  <!-- Silueta estiramiento tailandés -->
  <g transform="translate(0,10)">
    <!-- Persona recibiendo masaje -->
    <path d="M70,100 C80,85 90,80 100,80 C110,80 120,85 130,100" stroke="#666" stroke-width="2" fill="none"/>
    <ellipse cx="100" cy="75" rx="10" ry="10" fill="#e6e6e6" stroke="#666" stroke-width="1"/>
    
    <!-- Cuerpo -->
    <path d="M90,85 C85,90 80,100 80,120 C80,140 90,145 100,145 C110,145 120,140 120,120 C120,100 115,90 110,85" fill="#e6e6e6" stroke="#666" stroke-width="1"/>
    
    <!-- Piernas estiradas -->
    <path d="M85,145 C70,150 50,155 40,165" stroke="#666" stroke-width="3" fill="none"/>
    <path d="M115,145 C130,150 150,155 160,165" stroke="#666" stroke-width="3" fill="none"/>
    
    <!-- Terapeuta realizando estiramiento -->
    <ellipse cx="100" cy="40" rx="10" ry="10" fill="#f5d6c6" stroke="#d4a27c" stroke-width="1"/>
    <path d="M95,50 C85,55 80,70 80,80" stroke="#d4a27c" stroke-width="3" fill="none"/>
    <path d="M105,50 C115,55 120,70 120,80" stroke="#d4a27c" stroke-width="3" fill="none"/>
    
    <!-- Brazos del terapeuta en posición de stretching -->
    <path d="M80,65 C70,60 60,70 40,65" stroke="#d4a27c" stroke-width="3" fill="none"/>
    <path d="M120,65 C130,60 140,70 160,65" stroke="#d4a27c" stroke-width="3" fill="none"/>
    
    <!-- Manos del terapeuta -->
    <ellipse cx="40" cy="65" rx="5" ry="4" fill="#f9c9b6" transform="rotate(-15, 40, 65)"/>
    <ellipse cx="160" cy="65" rx="5" ry="4" fill="#f9c9b6" transform="rotate(15, 160, 65)"/>
    
    <!-- Líneas de acupresión -->
    <line x1="95" y1="95" x2="90" y2="115" stroke="#bf8c60" stroke-width="1" stroke-dasharray="2,2"/>
    <line x1="105" y1="95" x2="110" y2="115" stroke="#bf8c60" stroke-width="1" stroke-dasharray="2,2"/>
    <line x1="90" y1="125" x2="85" y2="140" stroke="#bf8c60" stroke-width="1" stroke-dasharray="2,2"/>
    <line x1="110" y1="125" x2="115" y2="140" stroke="#bf8c60" stroke-width="1" stroke-dasharray="2,2"/>
  </g>
  
  <!-- Elementos decorativos tailandeses -->
  <path d="M30,30 Q35,20 40,30 Q45,40 50,30 Q55,20 60,30" stroke="#d57238" stroke-width="1.5" fill="none"/>
  <path d="M140,30 Q145,20 150,30 Q155,40 160,30 Q165,20 170,30" stroke="#d57238" stroke-width="1.5" fill="none"/>
  
  <!-- Símbolos tailandeses decorativos -->
  <circle cx="45" cy="25" r="3" fill="#d57238" opacity="0.6"/>
  <circle cx="155" cy="25" r="3" fill="#d57238" opacity="0.6"/>
  
  <!-- Flores de loto decorativas -->
  <g transform="translate(40,180) scale(0.6)">
    <path d="M0,0 C5,-5 10,-2 15,0 C10,2 5,5 0,0" fill="#f9a1bc" transform="rotate(0, 0, 0)"/>
    <path d="M0,0 C5,-5 10,-2 15,0 C10,2 5,5 0,0" fill="#f9a1bc" transform="rotate(72, 0, 0)"/>
    <path d="M0,0 C5,-5 10,-2 15,0 C10,2 5,5 0,0" fill="#f9a1bc" transform="rotate(144, 0, 0)"/>
    <path d="M0,0 C5,-5 10,-2 15,0 C10,2 5,5 0,0" fill="#f9a1bc" transform="rotate(216, 0, 0)"/>
    <path d="M0,0 C5,-5 10,-2 15,0 C10,2 5,5 0,0" fill="#f9a1bc" transform="rotate(288, 0, 0)"/>
    <circle cx="0" cy="0" r="3" fill="#f0cf65"/>
  </g>
  
  <g transform="translate(160,180) scale(0.6)">
    <path d="M0,0 C5,-5 10,-2 15,0 C10,2 5,5 0,0" fill="#f9a1bc" transform="rotate(0, 0, 0)"/>
    <path d="M0,0 C5,-5 10,-2 15,0 C10,2 5,5 0,0" fill="#f9a1bc" transform="rotate(72, 0, 0)"/>
    <path d="M0,0 C5,-5 10,-2 15,0 C10,2 5,5 0,0" fill="#f9a1bc" transform="rotate(144, 0, 0)"/>
    <path d="M0,0 C5,-5 10,-2 15,0 C10,2 5,5 0,0" fill="#f9a1bc" transform="rotate(216, 0, 0)"/>
    <path d="M0,0 C5,-5 10,-2 15,0 C10,2 5,5 0,0" fill="#f9a1bc" transform="rotate(288, 0, 0)"/>
    <circle cx="0" cy="0" r="3" fill="#f0cf65"/>
  </g>
  
  <!-- Texto descriptivo -->
  <text x="100" y="185" font-family="Arial" font-size="9" text-anchor="middle" fill="#333">Masaje Tailandés</text>
</svg>
